<?xml version="1.0" encoding="iso-8859-1"?>
<!-- Generator: Adobe Illustrator 19.0.0, SVG Export Plug-In . SVG Version: 6.00 Build 0)  -->
<svg version="1.1" id="Layer_1" xmlns="http://www.w3.org/2000/svg" xmlns:xlink="http://www.w3.org/1999/xlink" x="0px" y="0px"
	 viewBox="0 0 512.001 512.001" style="enable-background:new 0 0 512.001 512.001;" xml:space="preserve">
<g>
	<path style="fill:#FFCA28;" d="M396.234,447.283l-78.092,3.842L268.11,475.45c0.016-0.16,0.028-0.319,0.043-0.479
		c-1.236,12.352-3.042,24.733-5.536,37.03h143.416C403.555,488.933,400.161,467.311,396.234,447.283z"/>
	<path style="fill:#FFCA28;" d="M353.95,308.82l0.001-0.003c-0.001,0.002-42.626,0.002-42.626,0.002l-47.378,40.197h-0.002
		l0.015,0.118c3.046,20.509,5.311,42.681,6.056,65.683c0,0,41.308,17.72,45.646,16.48c4.337-1.239,58.244-28.503,58.244-28.503
		l4.389-27.519C369.441,346.232,360.488,323.717,353.95,308.82z"/>
	<path style="fill:#FFCA28;" d="M331.317,256.481l-14.657-36.315l-62.677-20.498l-19.172,30.754c0,0,8.7,22.974,17.485,59.14
		l0.003,0.001l55.309,4.776l30.981-37.861h-7.272V256.481z"/>
</g>
<g>
	<path style="fill:#FF9800;" d="M396.21,447.164c-5.303-27.02-11.581-51.121-17.914-71.889
		c-32.684,39.91-108.275,39.539-108.275,39.539l-0.004,0.002c0.643,19.776,0.164,40.164-1.908,60.633
		c0.056,0.002,102.111,4.301,128.124-28.166L396.21,447.164z"/>
	<path style="fill:#FF9800;" d="M332.171,258.598c-26.741,25.657-79.873,30.968-79.873,30.968l-0.003-0.001l0.032,0.138
		c4.161,17.156,8.34,37.272,11.617,59.313h0.002c0,0,68.939-11.992,90.004-40.198c-5.975-13.615-9.931-20.865-9.931-20.865
		L332.171,258.598z"/>
</g>
<path style="opacity:0.1;enable-background:new    ;" d="M309.309,475.449c2.07-20.469,2.549-40.857,1.908-60.633
	c-0.747-23.002-3.012-45.173-6.056-65.683l-0.015-0.118c-3.278-22.041-7.456-42.158-11.617-59.313l-0.032-0.138
	c-8.784-36.166-17.485-59.14-17.485-59.14l12.195-19.562l-34.223-11.192l-19.172,30.754c0,0,8.7,22.974,17.485,59.14l0.032,0.138
	c4.162,17.156,8.34,37.272,11.617,59.313l0.015,0.118c3.046,20.509,5.311,42.681,6.056,65.683
	c0.643,19.776,0.164,40.164-1.908,60.633c0.016-0.16,0.028-0.319,0.043-0.479c-1.236,12.352-3.042,24.733-5.536,37.03h41.2
	c2.495-12.297,4.3-24.679,5.536-37.03C309.337,475.129,309.326,475.289,309.309,475.449z"/>
<g>
	<path style="fill:#8BC34A;" d="M253.983,199.67c-34.304,1.119-79.554,26.558-116.895,69.113s-56.686,90.726-53.336,124.885
		l101.005-83.056L253.983,199.67z"/>
	<path style="fill:#8BC34A;" d="M253.983,199.67c-8.755-33.187-43.662-71.607-93.485-98.495S59.4,66.194,26.853,77.091
		l103.526,79.893L253.983,199.67z"/>
</g>
<g>
	<path style="fill:#78A840;" d="M253.983,199.67c32.157-11.996,83.679-5.653,134.386,19.528s86.901,62.392,96.778,95.262
		l-124.985-38.462L253.983,199.67z"/>
	<path style="fill:#78A840;" d="M253.983,199.67c-4.507-34.025,13.188-82.826,49.063-126.624S383.279,2.283,417.525,0
		l-65.417,113.229L253.983,199.67z"/>
	<path style="fill:#78A840;" d="M253.983,199.67L26.853,77.091c8.755,33.187,43.662,71.607,93.485,98.495
		S221.436,210.566,253.983,199.67z"/>
</g>
<g>
	<path style="fill:#8BC34A;" d="M253.983,199.67L417.525,0c4.507,34.025-13.188,82.826-49.063,126.624
		S288.23,197.386,253.983,199.67z"/>
	<path style="fill:#8BC34A;" d="M253.983,199.67l231.164,114.79c-32.157,11.996-83.679,5.653-134.387-19.528
		S263.861,232.54,253.983,199.67z"/>
</g>
<path style="fill:#78A840;" d="M253.983,199.67L83.752,393.666c34.304-1.119,79.554-26.558,116.895-69.113
	S257.332,233.827,253.983,199.67z"/>
<g>
</g>
<g>
</g>
<g>
</g>
<g>
</g>
<g>
</g>
<g>
</g>
<g>
</g>
<g>
</g>
<g>
</g>
<g>
</g>
<g>
</g>
<g>
</g>
<g>
</g>
<g>
</g>
<g>
</g>
</svg>
